# xmcd CD database file
#
# Track frame offsets:
#	150
#	30022
#	61217
#	85197
#	109164
#	135101
#	177166
#	219066
#
# Disc length: 3064 seconds
#
# Revision: 0
# Processed by: cddbd v1.5.2PL0 Copyright (c) Steve Scherf et al.
# Submitted via: CDex 1.51
#
DISCID=520bf608
DTITLE=Dr. John With The Donald Harrison Band - Funky New Orleans
DYEAR=2013
DGENRE=Jazz
TTITLE0=Dr. John With The Donald Harrison Band - You Ain't So Such A Much
TTITLE1=Dr. John With The Donald Harrison Band - Ja-Ki-Mo-Fi-Na-Hay
TTITLE2=Dr. John With The Donald Harrison Band - Shave 'Em Dry 
TTITLE3=Dr. John With The Donald Harrison Band - Big Chief 
TTITLE4=Dr. John With The Donald Harrison Band - Mamzelle Zizi
TTITLE5=Dr. John With The Donald Harrison Band - Livin' On Borrowed Time 
TTITLE6=Dr. John With The Donald Harrison Band - Hu-Ta-Nay
TTITLE7=Dr. John With The Donald Harrison Band - Walkin' Home
EXTD=YEAR: 2013
EXTT0=
EXTT1=
EXTT2=
EXTT3=
EXTT4=
EXTT5=
EXTT6=
EXTT7=
PLAYORDER=
